# xmcd CD database file
# Copyright (C) 1993-1999 CDDB, Inc.
#
# Track frame offsets:
#	150
#	12797
#	23796
#	35105
#	44721
#	52921
#	62241
#	72549
#	83682
#	94681
#	104685
#	114583
#	126088
#	138837
#	149586
#	159700
#	169875
#	179456
#	193729
#	203798
#	219253
#	229816
#	243556
#	253353
#	267162
#	276096
#
# Disc length: 3830
#
# Revision: 1
# Processed by: cddbd v1.5.1PL0 Copyright (c) Steve Scherf et al.
# Submitted via: CoolCD_Studio 1.3.1
#
DISCID=8f0ef41a
DTITLE=Jim Reeves - Gentleman Jim - The Definitive Jim Reeves Colle
DTITLE=ction - CD2
DYEAR=2003
DGENRE=
TTITLE0=I Love You Because
TTITLE1=Welcome To My World
TTITLE2=How Can I Write On Paper
TTITLE3=But You Love Me, Daddy
TTITLE4=Trying To Forget
TTITLE5=I Won't Forget You
TTITLE6=Is It Really Over
TTITLE7=Angels Don't Lie
TTITLE8=I Guess I'm Crazy
TTITLE9=Snowflake
TTITLE10=Is This Me
TTITLE11=Anna Marie
TTITLE12=Blue Side Of Lonesome
TTITLE13=You're The Only Good Thing(That's Happened To Me)
TTITLE14=There's A Heartache Following Me
TTITLE15=I Won't Come In While He's There
TTITLE16=I'm Gonna Change Everything
TTITLE17=This Is It
TTITLE18=When Two Worlds Collide
TTITLE19=The Blizzard
TTITLE20=I'm Getting Better
TTITLE21=I Love You Because(Live Bonus Track)
TTITLE22=Bimbo (Live Bonus Track)
TTITLE23=Four Walls - Blue Canadian Rockies (Live Bonus Track)
TTITLE24=Yonder Comes A Sucker (Live Bonus Track)
TTITLE25=Adios Amigo (Live Bonus Track)
EXTD=
EXTT0=
EXTT1=
EXTT2=
EXTT3=
EXTT4=
EXTT5=
EXTT6=
EXTT7=
EXTT8=
EXTT9=
EXTT10=
EXTT11=
EXTT12=
EXTT13=
EXTT14=
EXTT15=
EXTT16=
EXTT17=
EXTT18=
EXTT19=
EXTT20=
EXTT21=
EXTT22=
EXTT23=
EXTT24=
EXTT25=
PLAYORDER=
